<?xml version="1.0" standalone="no"?>
<!DOCTYPE svg PUBLIC "-//W3C//DTD SVG 20010904//EN"
 "http://www.w3.org/TR/2001/REC-SVG-20010904/DTD/svg10.dtd">
<svg version="1.0" xmlns="http://www.w3.org/2000/svg"
 width="512.000000pt" height="512.000000pt" viewBox="0 0 512.000000 512.000000"
 preserveAspectRatio="xMidYMid meet">

<g transform="translate(0.000000,512.000000) scale(0.100000,-0.100000)"
fill="#000000" stroke="none">
<path d="M2370 5114 c-19 -2 -78 -9 -130 -15 -791 -90 -1522 -586 -1924 -1305
-146 -262 -252 -587 -297 -914 -20 -143 -18 -527 4 -670 90 -586 331 -1065
738 -1467 63 -62 155 -145 204 -185 860 -687 2080 -744 2997 -140 365 241 681
593 876 974 425 830 363 1838 -159 2603 -180 265 -411 497 -668 674 -79 54
-111 62 -149 35 -21 -14 -26 -13 -82 18 -56 31 -60 35 -60 69 0 46 -14 58
-124 110 -177 83 -449 161 -681 195 -96 14 -472 27 -545 18z m400 -1913 c199
-68 361 -230 432 -431 20 -56 23 -84 23 -210 0 -126 -3 -154 -23 -210 -71
-201 -232 -362 -432 -431 -54 -19 -87 -23 -195 -23 -71 -1 -158 3 -191 8 -56
8 -63 7 -83 -13 -25 -25 -27 -68 -6 -98 22 -31 136 -55 265 -55 393 -2 728
272 807 659 l18 83 793 0 793 0 -6 -62 c-24 -244 -44 -364 -90 -524 -234 -812
-885 -1449 -1700 -1663 -845 -223 -1751 33 -2353 664 -374 392 -617 919 -657
1425 -3 41 -8 94 -11 118 l-5 42 793 0 793 0 18 -87 c35 -167 112 -307 235
-425 54 -52 77 -68 99 -68 32 0 68 27 78 59 9 28 -7 52 -79 125 -74 74 -135
173 -168 271 -20 60 -23 90 -23 210 1 132 3 145 32 221 85 223 241 363 478
430 78 22 282 13 365 -15z"/>
</g>
</svg>
